<svg width="14" height="9" viewBox="0 0 14 9" fill="none" xmlns="http://www.w3.org/2000/svg">
<path fill-rule="evenodd" clip-rule="evenodd" d="M12.14 4.17539H13.5231V2.93078C13.5231 2.67232 13.3123 2.46155 13.0538 2.46155H5.26306C5.28771 2.51232 5.31078 2.56309 5.33386 2.61539C5.49077 2.9877 5.57075 3.38309 5.57075 3.79078C5.57075 3.91999 5.56306 4.04924 5.54614 4.17539H12.14Z" fill="black"/>
<path fill-rule="evenodd" clip-rule="evenodd" d="M2.55231 1.31079C2.50001 1.31079 2.44924 1.31233 2.39847 1.31541V4.17387H4.1077H5.00154C5.02156 4.04771 5.03078 3.92002 5.03078 3.78925C5.03078 3.30002 4.88924 2.84465 4.64462 2.46156C4.20616 1.76925 3.43231 1.31079 2.55231 1.31079Z" fill="black"/>
<path fill-rule="evenodd" clip-rule="evenodd" d="M0.461538 8.50769H1.39846C1.65385 8.50769 1.86 8.30154 1.86 8.04615V6.57385H12.14V8.04615C12.14 8.30154 12.3462 8.50769 12.6015 8.50769H13.5385C13.7938 8.50769 14 8.30154 14 8.04615V5.17538C14 4.91998 13.7938 4.71385 13.5385 4.71385H12.14H1.86V1.40923V0.461538C1.86 0.206154 1.65385 0 1.39846 0H0.461538C0.206154 0 0 0.206154 0 0.461538V2.18V2.77231V4.80769V5.4V8.04615C0 8.3 0.206154 8.50769 0.461538 8.50769Z" fill="black"/>
</svg>
