<svg width="14" height="11" viewBox="0 0 14 11" fill="none" xmlns="http://www.w3.org/2000/svg">
<path d="M14 7.25V8.75C14 8.81771 13.974 8.8776 13.9219 8.92969C13.875 8.97656 13.8177 9 13.75 9H3V10.5C3 10.5677 2.97396 10.625 2.92188 10.6719C2.875 10.724 2.81771 10.75 2.75 10.75C2.6875 10.75 2.625 10.724 2.5625 10.6719L0.0703125 8.17187C0.0234375 8.125 0 8.06771 0 8C0 7.92708 0.0234375 7.86719 0.0703125 7.82031L2.57031 5.32031C2.61719 5.27344 2.67708 5.25 2.75 5.25C2.81771 5.25 2.875 5.27604 2.92188 5.32812C2.97396 5.375 3 5.43229 3 5.5V7H13.75C13.8177 7 13.875 7.02604 13.9219 7.07812C13.974 7.125 14 7.18229 14 7.25ZM13.9297 2.82031C13.9766 2.86719 14 2.92708 14 3C14 3.07292 13.9766 3.13281 13.9297 3.17969L11.4297 5.67969C11.3828 5.72656 11.3229 5.75 11.25 5.75C11.1823 5.75 11.1224 5.72656 11.0703 5.67969C11.0234 5.6276 11 5.56771 11 5.5V4H0.25C0.182292 4 0.122396 3.97656 0.0703125 3.92969C0.0234375 3.8776 0 3.81771 0 3.75V2.25C0 2.18229 0.0234375 2.125 0.0703125 2.07812C0.122396 2.02604 0.182292 2 0.25 2H11V0.5C11 0.427083 11.0234 0.367187 11.0703 0.320312C11.1172 0.273437 11.1771 0.25 11.25 0.25C11.3125 0.25 11.375 0.276041 11.4375 0.328125L13.9297 2.82031Z" fill="white"/>
</svg>
