<svg width="14" height="12" viewBox="0 0 14 12" fill="none" xmlns="http://www.w3.org/2000/svg">
<path d="M13 3.65625C13 3.23437 12.9427 2.86198 12.8281 2.53906C12.7188 2.21615 12.5755 1.96094 12.3984 1.77344C12.2266 1.58073 12.0156 1.42448 11.7656 1.30469C11.5156 1.1849 11.2708 1.10417 11.0313 1.0625C10.7917 1.02083 10.5365 1 10.2656 1C9.99479 1 9.70313 1.06771 9.39063 1.20312C9.07813 1.33333 8.78906 1.5 8.52344 1.70312C8.26302 1.90104 8.03906 2.08854 7.85156 2.26562C7.66406 2.4375 7.50781 2.59635 7.38281 2.74219C7.28906 2.85677 7.16146 2.91406 7 2.91406C6.83854 2.91406 6.71094 2.85677 6.61719 2.74219C6.49219 2.59635 6.33594 2.4375 6.14844 2.26562C5.96094 2.08854 5.73438 1.90104 5.46875 1.70312C5.20833 1.5 4.92188 1.33333 4.60938 1.20312C4.29688 1.06771 4.00521 1 3.73438 1C3.46354 1 3.20833 1.02083 2.96875 1.0625C2.72917 1.10417 2.48438 1.1849 2.23438 1.30469C1.98438 1.42448 1.77083 1.58073 1.59375 1.77344C1.42188 1.96094 1.27865 2.21615 1.16406 2.53906C1.05469 2.86198 1 3.23437 1 3.65625C1 4.53125 1.48698 5.45573 2.46094 6.42969L7 10.8047L11.5313 6.4375C12.5104 5.45833 13 4.53125 13 3.65625ZM14 3.65625C14 4.80729 13.4036 5.97917 12.2109 7.17188L7.34375 11.8594C7.25 11.9531 7.13542 12 7 12C6.86458 12 6.75 11.9531 6.65625 11.8594L1.78125 7.15625C1.72917 7.11458 1.65625 7.04687 1.5625 6.95312C1.47396 6.85937 1.33073 6.6901 1.13281 6.44531C0.934896 6.19531 0.757813 5.9401 0.601563 5.67969C0.445313 5.41927 0.304688 5.10417 0.179688 4.73437C0.0598958 4.36458 0 4.00521 0 3.65625C0 2.51042 0.330729 1.61458 0.992188 0.96875C1.65365 0.322916 2.56771 -5.96046e-07 3.73438 -5.96046e-07C4.05729 -5.96046e-07 4.38542 0.057291 4.71875 0.171874C5.05729 0.281249 5.36979 0.432291 5.65625 0.625C5.94792 0.812499 6.19792 0.989583 6.40625 1.15625C6.61458 1.32292 6.8125 1.5 7 1.6875C7.1875 1.5 7.38542 1.32292 7.59375 1.15625C7.80208 0.989583 8.04948 0.812499 8.33594 0.625C8.6276 0.432291 8.9401 0.281249 9.27344 0.171874C9.61198 0.057291 9.94271 -5.96046e-07 10.2656 -5.96046e-07C11.4323 -5.96046e-07 12.3464 0.322916 13.0078 0.96875C13.6693 1.61458 14 2.51042 14 3.65625Z" fill="white"/>
</svg>
