<svg width="9" height="13" viewBox="0 0 9 13" fill="none" xmlns="http://www.w3.org/2000/svg">
<path d="M7.91406 3.42187C8.00781 3.52604 8.02604 3.64062 7.96875 3.76562L3.75 12.8047C3.68229 12.9349 3.57292 13 3.42188 13C3.40104 13 3.36458 12.9948 3.3125 12.9844C3.22396 12.9583 3.15625 12.9089 3.10938 12.8359C3.06771 12.763 3.05729 12.6849 3.07812 12.6016L4.61719 6.28906L1.44531 7.07812C1.42448 7.08333 1.39323 7.08594 1.35156 7.08594C1.25781 7.08594 1.17708 7.05729 1.10938 7C1.01562 6.92187 0.981771 6.82031 1.00781 6.69531L2.57813 0.249999C2.59896 0.177083 2.64063 0.117187 2.70313 0.0703123C2.76563 0.023437 2.83854 -5.96046e-07 2.92188 -5.96046e-07H5.48438C5.58333 -5.96046e-07 5.66667 0.0338537 5.73438 0.101562C5.80208 0.164062 5.83594 0.239583 5.83594 0.328124C5.83594 0.369791 5.82292 0.416666 5.79688 0.468749L4.46094 4.08594L7.55469 3.32031C7.59635 3.3099 7.6276 3.30469 7.64844 3.30469C7.7474 3.30469 7.83594 3.34375 7.91406 3.42187Z" fill="white"/>
</svg>
